HIERARCHY
ROOT Hips
{
	OFFSET 40.040798 -11.952916 98.615097
	CHANNELS 6 Xposition Yposition Zposition Xrotation Yrotation Zrotation
	JOINT spine
	{
		OFFSET 0.000000 -0.477352 8.301033
		CHANNELS 3 Xrotation Yrotation Zrotation
		JOINT spine1
		{
			OFFSET 0.000000 -0.000002 10.456497
			CHANNELS 3 Xrotation Yrotation Zrotation
			JOINT spine2
			{
				OFFSET 0.000000 -0.000002 10.019203
				CHANNELS 3 Xrotation Yrotation Zrotation
				JOINT Neck
				{
					OFFSET 0.000000 -1.226414 25.723495
					CHANNELS 3 Xrotation Yrotation Zrotation
					JOINT Head
					{
						OFFSET 0.000000 -0.000001 7.771744
						CHANNELS 3 Xrotation Yrotation Zrotation
						End Site
						{
							OFFSET 0.000000 6.203937 18.811996
						}
					}
				}
				JOINT RightShoulder
				{
					OFFSET -4.218800 0.587437 10.819992
					CHANNELS 3 Xrotation Yrotation Zrotation
					JOINT RightArm
					{
						OFFSET 0.000000 -0.000002 14.191406
						CHANNELS 3 Xrotation Yrotation Zrotation
						JOINT RightArmRoll
						{
							OFFSET 0.000000 -0.000001 7.164078
							CHANNELS 3 Xrotation Yrotation Zrotation
							JOINT RightForeArm
							{
								OFFSET 0.000000 -0.000004 20.866501
								CHANNELS 3 Xrotation Yrotation Zrotation
								JOINT RightForeArmRoll
								{
									OFFSET 0.000000 -0.000001 8.039215
									CHANNELS 3 Xrotation Yrotation Zrotation
									JOINT RightHand
									{
										OFFSET 0.000000 -0.000003 16.132996
										CHANNELS 3 Xrotation Yrotation Zrotation
										End Site
										{
											OFFSET 0.000000 0.000000 0.100006
										}
									}
								}
							}
						}
					}
				}
				JOINT LeftShoulder
				{
					OFFSET 4.218800 0.587437 10.819992
					CHANNELS 3 Xrotation Yrotation Zrotation
					JOINT LeftArm
					{
						OFFSET 0.000000 -0.000002 14.191406
						CHANNELS 3 Xrotation Yrotation Zrotation
						JOINT LeftArmRoll
						{
							OFFSET 0.000000 -0.000001 7.164078
							CHANNELS 3 Xrotation Yrotation Zrotation
							JOINT LeftForeArm
							{
								OFFSET 0.000000 -0.000004 20.866501
								CHANNELS 3 Xrotation Yrotation Zrotation
								JOINT LeftForeArmRoll
								{
									OFFSET 0.000000 -0.000001 8.039215
									CHANNELS 3 Xrotation Yrotation Zrotation
									JOINT LeftHand
									{
										OFFSET 0.000000 -0.000003 16.132996
										CHANNELS 3 Xrotation Yrotation Zrotation
										End Site
										{
											OFFSET 0.000000 0.000000 0.100006
										}
									}
								}
							}
						}
					}
				}
			}
		}
	}
	JOINT RightUpLeg
	{
		OFFSET -7.357731 1.131810 -1.349213
		CHANNELS 3 Xrotation Yrotation Zrotation
		JOINT RightUpLegRoll
		{
			OFFSET 0.000000 -0.000003 18.916801
			CHANNELS 3 Xrotation Yrotation Zrotation
			JOINT RightLeg
			{
				OFFSET 0.000000 0.000004 -23.425598
				CHANNELS 3 Xrotation Yrotation Zrotation
				JOINT RightLegRoll
				{
					OFFSET 0.000000 -0.000004 23.502296
					CHANNELS 3 Xrotation Yrotation Zrotation
					JOINT RightFoot
					{
						OFFSET 0.000000 -0.000003 19.561707
						CHANNELS 3 Xrotation Yrotation Zrotation
						JOINT RightToeBase
						{
							OFFSET 0.000000 -0.000003 16.352600
							CHANNELS 3 Xrotation Yrotation Zrotation
							End Site
							{
								OFFSET 0.006931 0.912836 7.919434
							}
						}
					}
				}
			}
		}
	}
	JOINT LeftUpLeg
	{
		OFFSET 7.357731 1.131810 -1.349213
		CHANNELS 3 Xrotation Yrotation Zrotation
		JOINT LeftUpLegRoll
		{
			OFFSET 0.000000 -0.000003 18.916901
			CHANNELS 3 Xrotation Yrotation Zrotation
			JOINT LeftLeg
			{
				OFFSET 0.000000 -0.000004 23.425507
				CHANNELS 3 Xrotation Yrotation Zrotation
				JOINT LeftLegRoll
				{
					OFFSET 0.000000 -0.000004 23.719498
					CHANNELS 3 Xrotation Yrotation Zrotation
					JOINT LeftFoot
					{
						OFFSET 0.000000 -0.000003 19.344406
						CHANNELS 3 Xrotation Yrotation Zrotation
						JOINT LeftToeBase
						{
							OFFSET 0.000000 -0.000003 16.352600
							CHANNELS 3 Xrotation Yrotation Zrotation
							End Site
							{
								OFFSET -0.031063 0.912835 7.919434
							}
						}
					}
				}
			}
		}
	}
}
MOTION
Frames: 8
Frame Time: 0.041667
44.150902 -11.883120 98.860901 -3.146046 -0.931025 8.191640 -0.708145 -0.121194 0.395931 2.587437 -0.259735 0.786815 4.232461 -0.250293 0.789872 17.187203 7.200291 -1.763317 -0.041098 -6.454890 -1.161622 2.298214 -60.932227 2.386329 -49.537221 -136.694256 -78.365301 -0.000006 -0.000006 0.000012 65.973159 -18.844186 9.451069 0.000041 0.000018 -3.006350 -5.000101 -7.998963 0.000006 -2.902903 66.384507 4.197841 -71.551839 117.944021 71.104223 0.000001 -0.000000 -0.000000 30.627886 13.978720 -3.002459 0.000001 -0.000004 3.000001 -5.000290 7.998742 -0.000208 2.092670 -174.703507 1.834178 -179.999991 0.000004 -1.193994 172.486114 -3.011957 -0.758083 -0.000006 0.000001 0.086318 68.633026 6.910767 2.093969 25.456965 -7.347593 0.000010 -1.177223 174.684110 0.563557 -0.000005 -0.000004 -1.183249 -10.778175 2.900642 1.032315 -0.000003 0.000001 -0.135023 68.450476 -6.949464 -2.036575 25.456953 7.355614 -0.000133 
44.170200 -11.879418 98.857094 -3.145672 -0.937521 8.255279 -0.706537 -0.122038 0.397338 2.590637 -0.260187 0.789949 4.235662 -0.250706 0.793011 17.200802 7.173944 -1.740430 -0.058589 -6.410388 -1.143101 2.294456 -60.974608 2.376248 -49.627567 -136.616720 -78.287970 -0.000005 -0.000009 0.000014 65.777010 -18.883308 9.455659 0.000041 0.000019 -3.006350 -5.000101 -7.998962 0.000006 -2.933684 66.391242 4.233269 -71.423992 117.882440 70.977851 0.000000 0.000000 -0.000000 30.653059 13.984969 -3.008123 0.000003 -0.000004 3.000000 -5.000289 7.998741 -0.000209 2.068749 -174.697429 1.829215 -179.999991 0.000005 -1.193995 172.416132 -2.996601 -0.761791 -0.000007 0.000001 0.087977 68.659479 6.910778 2.092616 25.456965 -7.347592 0.000010 -1.151399 174.691063 0.570508 -0.000005 -0.000004 -1.183191 -10.707780 2.900627 1.028646 -0.000004 0.000001 -0.133869 68.431098 -6.949485 -2.036598 25.456953 7.355615 -0.000131 
44.183701 -11.885017 98.904602 -3.145367 -0.943999 8.318417 -0.704897 -0.122887 0.398751 2.593887 -0.260583 0.793105 4.238921 -0.251065 0.796171 17.212553 7.146755 -1.718329 -0.073796 -6.364307 -1.125502 2.289656 -61.017112 2.364949 -49.717521 -136.539989 -78.210283 -0.000009 -0.000005 0.000012 65.579802 -18.923582 9.460838 0.000042 0.000017 -3.006349 -5.000102 -7.998961 0.000007 -2.964760 66.397860 4.269048 -71.296527 117.821665 70.851547 0.000002 0.000001 0.000000 30.677491 13.991056 -3.013643 -0.000002 -0.000004 3.000001 -5.000288 7.998743 -0.000209 2.043950 -174.691363 1.823676 -179.999991 0.000005 -1.193994 172.344688 -2.980248 -0.766389 -0.000006 0.000001 0.089679 68.686991 6.910763 2.091192 25.456969 -7.347592 0.000010 -1.124603 174.698016 0.577036 -0.000005 -0.000004 -1.183139 -10.635689 2.901030 1.024924 -0.000003 0.000001 -0.132675 68.410867 -6.949477 -2.036570 25.456950 7.355611 -0.000130 
44.191299 -11.887617 98.901001 -3.145095 -0.950464 8.381198 -0.703225 -0.123740 0.400166 2.597197 -0.260938 0.796275 4.242222 -0.251382 0.799346 17.222974 7.118960 -1.696767 -0.087407 -6.317105 -1.108538 2.284123 -61.059822 2.352782 -49.806904 -136.463928 -78.132064 -0.000006 -0.000008 0.000013 65.381822 -18.964705 9.466219 0.000042 0.000016 -3.006351 -5.000102 -7.998961 0.000006 -2.996123 66.404568 4.305128 -71.168911 117.761614 70.724833 0.000001 0.000001 -0.000000 30.701485 13.997013 -3.019094 0.000002 -0.000004 3.000000 -5.000289 7.998741 -0.000209 2.018545 -174.685285 1.817738 -179.999991 0.000005 -1.193994 172.272206 -2.962900 -0.769883 -0.000006 0.000001 0.091410 68.715241 6.910741 2.089824 25.456965 -7.347592 0.000009 -1.097121 174.704955 0.583273 -0.000005 -0.000004 -1.183121 -10.562298 2.901724 1.021161 -0.000003 0.000001 -0.131451 68.390008 -6.949485 -2.036584 25.456955 7.355613 -0.000130 
44.195301 -11.888514 98.901993 -3.144860 -0.956923 8.443777 -0.701545 -0.124595 0.401584 2.600518 -0.261270 0.799455 4.245542 -0.251676 0.802529 17.232578 7.090836 -1.675503 -0.100109 -6.269271 -1.091930 2.278159 -61.102538 2.340114 -49.896099 -136.387704 -78.053899 -0.000007 -0.000007 0.000014 65.183391 -19.006405 9.471616 0.000041 0.000018 -3.006350 -5.000101 -7.998963 0.000006 -3.027592 66.411261 4.341351 -71.041323 117.701904 70.598078 -0.000001 -0.000000 0.000000 30.725049 14.002856 -3.024430 0.000004 -0.000004 3.000000 -5.000294 7.998742 -0.000209 1.992791 -174.679206 1.811560 -179.999991 0.000005 -1.193994 172.199123 -2.946522 -0.774482 -0.000006 0.000001 0.093159 68.743928 6.910764 2.088234 25.456965 -7.347593 0.000010 -1.069252 174.711909 0.589342 -0.000005 -0.000005 -1.183100 -10.488207 2.902587 1.017372 -0.000003 0.000001 -0.130210 68.368841 -6.949495 -2.036618 25.456957 7.355613 -0.000130 
44.209999 -11.879118 98.914803 -3.144615 -0.963380 8.506306 -0.699859 -0.125449 0.403003 2.603857 -0.261597 0.802639 4.248882 -0.251964 0.805715 17.242078 7.062623 -1.654317 -0.112576 -6.221281 -1.075400 2.272079 -61.145260 2.327305 -49.985209 -136.311342 -77.975762 -0.000006 -0.000007 0.000013 64.984879 -19.048518 9.477119 0.000041 0.000018 -3.006350 -5.000101 -7.998965 0.000007 -3.059135 66.417955 4.377634 -70.913005 117.642482 70.470579 0.000003 0.000002 -0.000000 30.748600 14.008604 -3.029728 0.000002 -0.000004 3.000000 -5.000291 7.998741 -0.000209 1.966948 -174.673113 1.805317 -179.999991 0.000005 -1.192997 172.125944 -2.929171 -0.777927 -0.000006 0.000001 0.094913 68.772703 6.910735 2.086832 25.456971 -7.347592 0.000010 -1.041283 174.717865 0.595392 -0.000005 -0.000004 -1.183090 -10.414017 2.903495 1.013582 -0.000004 0.000001 -0.128967 68.347661 -6.949458 -2.036642 25.456953 7.355612 -0.000130 
44.222500 -11.883317 98.906898 -3.144353 -0.969839 8.568936 -0.698177 -0.126303 0.404421 2.607178 -0.261934 0.805815 4.252201 -0.252263 0.808898 17.251890 7.034601 -1.632959 -0.125500 -6.173617 -1.058658 2.266210 -61.187976 2.314741 -50.073182 -136.235363 -77.896176 -0.000010 -0.000007 0.000012 64.786509 -19.090657 9.482160 0.000041 0.000020 -3.006350 -5.000101 -7.998960 0.000006 -3.090614 66.424539 4.413854 -70.784153 117.582963 70.342704 -0.000001 -0.000000 0.000000 30.772280 14.014502 -3.035120 0.000003 -0.000004 3.000000 -5.000290 7.998741 -0.000208 1.941281 -174.666051 1.799221 -179.999991 0.000005 -1.192997 172.053025 -2.911810 -0.782297 -0.000006 0.000001 0.096657 68.801274 6.910743 2.085347 25.456969 -7.347592 0.000010 -1.013511 174.724831 0.601519 -0.000005 -0.000004 -1.183071 -10.340127 2.904308 1.009801 -0.000003 0.000001 -0.127730 68.326501 -6.949483 -2.036680 25.456955 7.355613 -0.000132 
44.228600 -11.877818 98.918900 -3.144058 -0.976307 8.631817 -0.696515 -0.127155 0.405837 2.610468 -0.262300 0.808982 4.255492 -0.252591 0.812068 17.262735 7.007015 -1.611200 -0.139559 -6.126773 -1.041415 2.260817 -61.230583 2.302742 -50.161302 -136.158277 -77.817131 -0.000004 -0.000006 0.000012 64.588584 -19.132711 9.486711 0.000041 0.000019 -3.006350 -5.000101 -7.998962 0.000006 -3.121932 66.431226 4.449904 -70.654011 117.523295 70.213757 -0.000001 0.000002 0.000000 30.796384 14.020427 -3.040572 0.000003 -0.000004 3.000001 -5.000290 7.998741 -0.000208 1.916041 -174.659958 1.793374 -179.999991 0.000005 -1.192996 171.980857 -2.894469 -0.785602 -0.000006 0.000001 0.098380 68.829333 6.910734 2.083892 25.456967 -7.347593 0.000009 -0.986232 174.731784 0.607866 -0.000005 -0.000004 -1.183041 -10.267036 2.904902 1.006045 -0.000004 0.000001 -0.126514 68.305867 -6.949495 -2.036581 25.456955 7.355613 -0.000130 
